<?xml version="1.0" encoding="UTF-8"?>
<svg id="Layer_1" data-name="Layer 1" xmlns="http://www.w3.org/2000/svg" viewBox="0 0 261.43 262.11">
  <defs>
    <style>
      .cls-1 {
        fill: #000;
      }

      .cls-1, .cls-2, .cls-3, .cls-4 {
        stroke-width: 0px;
      }

      .cls-2 {
        fill: #fff;
      }

      .cls-3 {
        fill: #29abe2;
      }

      .cls-4 {
        fill: #00539b;
      }
    </style>
  </defs>
  <g>
    <g>
      <path class="cls-2" d="M25.16,37.97s-.68,70.31,4.49,88.73c5.16,18.42,22.91,76.36,101.04,127.56h0c73.06-51.83,95.92-109.15,101.08-127.56,5.17-18.42,4.49-88.73,4.49-88.73L130.32,7.45,25.16,37.97Z"/>
      <path class="cls-1" d="M130.75,257.14l-1.36-.89c-36.83-24.13-84.42-66.09-102.03-128.91-5.2-18.53-4.61-86.51-4.58-89.39l.02-1.77L130.32,4.97l108.31,31.2.02,1.77c.03,2.88.62,70.86-4.58,89.39-3.3,11.78-23.73,73.34-101.99,128.86l-1.32.94ZM27.53,39.76c-.06,11-.15,70.02,4.42,86.29,17,60.64,62.75,101.5,98.7,125.32,75.86-54.34,95.63-113.88,98.84-125.32,4.57-16.27,4.48-75.28,4.42-86.29l-103.57-29.84L27.53,39.76Z"/>
    </g>
    <g>
      <path class="cls-1" d="M130.73,219.27v.02s0,0,0,0,0,0,0,0Z"/>
      <path class="cls-1" d="M206.42,123.7c-3.87,13.8-17.16,57.21-75.7,95.56,0,0,0,0,0,0,0,0,0,0-.02,0-58.53-38.36-71.83-81.77-75.7-95.56-3.88-13.8-3.37-66.47-3.37-66.47l78.73-22.85.05-.02,79.37,22.87s.51,52.67-3.37,66.47Z"/>
      <polygon class="cls-1" points="130.37 34.35 130.42 34.37 130.37 34.38 130.37 34.35"/>
      <path class="cls-1" d="M130.72,219.27s0,0-.02,0v-.02s0,0,.02,0Z"/>
    </g>
  </g>
  <g>
    <g>
      <path class="cls-4" d="M83.17,117.14c-1.75-8.75,2.51-29.16,14.44-34.95,6.79-3.29,11.22-6.61,13.65-8.7l-5.09,1.22.98-1.75c17.77-31.72,43.37-32.08,44.45-32.08h.66s.22.53.22.53c.18.42,17.46,42.02-14.95,70.38l-.51.45-1.69-1.15-.1-.22c-4.45-9.69-17.07-10.84-17.19-10.85l-2.51-.21,2.1-1.4c1.06-.71,2.52-2.55,3.78-4.37-5.64,3.89-16.48,11.02-23.94,13.83-9.76,3.68-12.61,9.43-12.64,9.48l-1.14,2.37-.52-2.57Z"/>
      <path class="cls-1" d="M151.61,41.75s.52.11.52.11c0,0,17.14,40.99-15.17,69.26l-.93-.63c-4.71-10.26-17.92-11.36-17.92-11.36,2.52-1.68,6.48-8.41,6.48-8.41,0,0-17.16,12.45-27.43,16.32-10.26,3.87-13.13,9.93-13.13,9.93-1.68-8.41,2.52-28.44,13.97-33.99,11.44-5.55,16.24-11.11,16.24-11.11l-6.31,1.51c17.46-31.16,42.19-31.64,43.68-31.64h0ZM151.61,39.99c-.76,0-7.7.12-16.6,4.3-11.52,5.41-21.15,14.91-28.61,28.24l-1.96,3.51,3.14-.75c-2.49,1.81-5.9,3.96-10.34,6.12-12.3,5.97-16.72,26.94-14.92,35.92l1.04,5.21,2.27-4.81s2.79-5.5,12.16-9.03c4.54-1.71,10.31-5,15.42-8.2l4.77.39c.12.01,12.25,1.16,16.47,10.34l.2.44.4.28.93.63,1.12.77,1.02-.9c17.2-15.05,20.41-33.68,20.08-46.65-.36-13.98-4.71-24.3-4.89-24.73l-.45-1.04-1.14-.03h-.1Z"/>
    </g>
    <g>
      <path class="cls-3" d="M116.37,223.5c-10.53-6.52-24.68-19.39-32.27-43.67-13.47-43.09,14.74-71.62,15.03-71.9l.15-.14.19-.06c5.59-1.86,15.03-6.9,15.12-6.95l.16-.08.18-.02c.81-.08,1.63-.12,2.41-.12,14.44,0,19.42,13.18,19.47,13.31l.11.29-.1.29c-.05.15-5.02,15.21-.99,31.02,3.01,11.79-3.76,17.79-8.17,20.34l4.18.16-1.25,1.39c-4.03,4.5-19.57,9.78-20.23,10.01l-1.15.39-.12-19.8.31-.27c4.29-3.7,6.83-8.55,8.32-12.72-3.47,6.14-7.97,11.94-8.99,13.24l.34,19.71-2.04,1.26c.68-.14,1.25-.23,1.57-.23.41,0,.71.14.91.41l.26.36-.16.52-.03.05c-11.04,22.24,7.71,41.65,7.9,41.84l5.14,5.22-6.23-3.86Z"/>
      <path class="cls-1" d="M137.84,114.14l-.21-.58s-.02-.05-.05-.12c-.03-.09-.08-.21-.16-.38-.08-.18-.18-.41-.33-.69-.02-.05-.04-.1-.07-.14-.24-.47-.54-1.05-.94-1.7-.06-.1-.12-.19-.18-.3-2.57-4.11-8.26-10.55-18.57-10.55-.56,0-1.13.02-1.7.06-.26,0-.54.04-.8.06l-.34.04-.32.16s-.36.19-.94.5c-.04.02-.09.04-.14.07-2.03,1.05-6.58,3.37-10.58,5.04h-.02s-.06.04-.1.05c-1.14.48-2.23.91-3.21,1.23l-.39.13-.29.28s-.11.11-.25.25c0,0,0,0,0,0-.22.23-.57.61-1.03,1.12-.09.1-.18.2-.28.32-.31.36-.66.77-1.04,1.24-.02.02-.03.03-.04.04-.03.04-.08.1-.14.17-2.63,3.25-6.65,8.95-10.05,16.75-1.79,4.11-3.52,9.12-4.67,14.89-1.22,6.08-1.81,13.01-1.17,20.65.45,5.44,1.51,11.24,3.42,17.34,7.67,24.54,21.99,37.56,32.65,44.16l12.46,7.72-10.29-10.44s-.98-1.02-2.34-2.79c-1.06-1.39-2.36-3.25-3.64-5.51-.7-1.25-1.4-2.61-2.03-4.07-1.48-3.37-2.43-6.71-2.87-10.02-.02-.08-.03-.17-.04-.25-.03-.21-.05-.43-.07-.64-.02-.08-.03-.17-.03-.25-.59-5.94.51-11.73,3.28-17.32l.05-.11.04-.11.19-.6.09-.25-.48-.69-.04-.07c-.08-.11-.19-.25-.36-.37l.79-.27c.06-.02.14-.04.24-.08.51-.18,1.49-.52,2.78-.99,0,0,.02-.02.04-.02,2.87-1.05,7.21-2.77,10.98-4.7,1.56-.8,3.01-1.63,4.22-2.47.96-.67,1.77-1.33,2.36-1.99l2.5-2.79-3.34-.12c.38-.29.76-.6,1.13-.93,2.92-2.56,5.69-6.49,5.91-12.23v-.04c.08-1.97-.15-4.16-.76-6.58-.12-.49-.24-.98-.34-1.47,0-.03-.02-.05-.02-.08-.21-.93-.39-1.85-.52-2.77-2.22-13.87,1.8-26.08,1.85-26.21l.2-.59ZM110.06,176.54l-.11-18.17c9.65-8.3,10.66-22.1,10.66-22.1-2.36,8.64-12.79,21.65-12.79,21.65l.33,19.52-6.43,3.97c.33-.09,5.73-1.58,6.85-1.58.15,0,.22.02.2.08-11.44,23.05,8.06,42.85,8.06,42.85-10.79-6.68-24.48-19.45-31.9-43.19-10.87-34.78,5.47-59.69,12.16-67.99.03-.04.05-.05.07-.08,1.56-1.92,2.57-2.94,2.57-2.94.04-.02.08-.03.12-.04,5.73-1.93,15.14-6.97,15.14-6.97.8-.08,1.57-.11,2.33-.11,9.33,0,14.51,5.66,16.92,9.43.2.33.4.64.56.93.81,1.41,1.16,2.37,1.16,2.37,0,0-5.16,15.26-1.01,31.52,4.15,16.27-10.99,20.87-10.99,20.87l5.94.22c-3.92,4.38-19.85,9.76-19.85,9.76Z"/>
    </g>
    <g>
      <path class="cls-3" d="M136.05,158.86c2.48-3.42,1.22-10.1,0-16.55-.52-2.73-1.05-5.55-1.28-8.09-.82-8.87,1.49-19.36,4.07-23.23l.1-.15.15-.1c6.34-4.19,10.88-12.93,10.92-13.02l.56-1.09.85.88c.16.17,4.05,4.38,5.85,24.2,1.83,20.12-12.75,34.58-20.1,38.44l-3.31,1.74,2.19-3.03Z"/>
      <path class="cls-1" d="M150.78,98.12s3.81,3.93,5.61,23.67c1.82,20.01-12.79,33.99-19.63,37.58,3.81-5.27-.34-16.72-1.12-25.24s1.46-18.96,3.93-22.66c6.62-4.38,11.22-13.35,11.22-13.35h0ZM150.34,95.14l-1.12,2.18c-.07.13-4.49,8.63-10.62,12.69l-.3.2-.2.3c-2.66,3.99-5.05,14.75-4.21,23.8.24,2.58.77,5.42,1.29,8.17,1.18,6.27,2.41,12.76.15,15.87l-4.39,6.06,6.63-3.48c7.52-3.94,22.43-18.74,20.57-39.3-1.8-19.79-5.66-24.29-6.1-24.74l-1.71-1.76h0Z"/>
    </g>
    <g>
      <path class="cls-2" d="M159.98,97.53c-4.64,0-8.09-1.11-8.24-1.15l-1.19-.39.77-.99c4.6-5.88,5.75-24.23,5.76-24.42l.02-.3.2-.23s1.31-1.49,2.42-3.78c5.4-14.1,10.38-17.31,10.59-17.44l.75-.46.46.75c.08.12,7.95,12.43,27.5,13.81.72.04,1.45.06,2.17.06,21.74,0,32.56-20.01,32.67-20.21l1.66-3.13v8.24s-.3.26-.3.26c-7.88,6.81-16.2,20.6-16.28,20.74l-.21.35-1.61.26c-16.17,3.33-34.16,15.45-42.29,22.78-3.82,3.44-8.95,5.26-14.83,5.26h0Z"/>
      <path class="cls-1" d="M234.64,43.18v4.29c-8.08,6.98-16.46,20.95-16.46,20.95l-1.21.2c-15.82,3.25-33.65,14.81-42.74,23-4.45,4.01-9.87,5.04-14.25,5.04s-7.97-1.11-7.97-1.11c4.82-6.17,5.95-24.9,5.95-24.9,0,0,1.37-1.54,2.55-3.98,5.38-14.05,10.26-17.08,10.26-17.08,0,0,7.91,12.79,28.19,14.22.76.04,1.5.07,2.23.07,22.55,0,33.44-20.68,33.44-20.68h0ZM236.4,36.08l-3.31,6.29c-.16.29-10.75,19.74-31.89,19.74-.7,0-1.42-.02-2.13-.06-19.14-1.35-26.72-13.27-26.8-13.39l-.93-1.5-1.5.93c-.55.34-5.52,3.74-10.95,17.87-1.04,2.13-2.24,3.5-2.25,3.52l-.4.45-.04.61c-.3,5.06-1.9,19.22-5.58,23.93l-1.55,1.98,2.39.78c.15.05,3.74,1.19,8.51,1.19,6.11,0,11.44-1.9,15.42-5.49,8.06-7.27,25.86-19.27,41.88-22.57l1.17-.19.8-.13.42-.7c.08-.14,8.34-13.81,16.11-20.53l.61-.53v-12.2h0Z"/>
    </g>
    <g>
      <path class="cls-2" d="M171.59,47.81l.24-.53c10.52-23.22,28.38-33.29,28.56-33.39l7.36-4.06-6.36,5.5c-18.23,15.77-23.4,37.1-23.45,37.31l-.38,1.61-5.98-6.43Z"/>
      <path class="cls-1" d="M200.82,14.66c-18.68,16.15-23.73,37.78-23.73,37.78l-4.46-4.8c10.52-23.22,28.19-32.98,28.19-32.98h0ZM171.23,44.87l-.68,3.12.8.86,4.46,4.8,2.25,2.42.75-3.21c.05-.21,8.85-24.89,29.71-43.5-8.91,3.33-27.02,13.16-37.28,35.53Z"/>
    </g>
    <g>
      <path class="cls-2" d="M166.98,47.83c.02-.09,2.1-8.9,1.94-12.83v-.16s.04-.15.04-.15c.21-.64,5.23-15.7,17.51-23.39l3.98-2.49-2.81,3.76c-.14.19-14.28,19.27-16.58,34.02l-.06.38-4.54,3.02.52-2.17Z"/>
      <path class="cls-1" d="M186.93,12.05s-14.39,19.27-16.74,34.41l-2.36,1.57s2.13-8.97,1.96-13.07c0,0,4.99-15.31,17.14-22.91h0ZM190.45,8.82c-17.81,8.24-22.11,24.95-22.32,25.6l-.1.3v.32c.14,3.16-1.33,10.16-1.9,12.59l-1.03,4.35,3.72-2.48,2.36-1.57.64-.43,2.11-3.98c1.63-9.74,11.07-24.46,16.52-34.7Z"/>
    </g>
    <g>
      <path class="cls-2" d="M157.37,65.69c.43-8.36-4.22-20.86-4.26-20.99l-.05-.14v-.14c-.46-13.4,12.96-30.9,13.53-31.64l1.27-1.64.29,2.05c4.71,32.83-9.04,52.85-9.18,53.05l-1.75,2.5.16-3.05Z"/>
      <path class="cls-1" d="M167.27,13.31c4.71,32.87-9.03,52.42-9.03,52.42.45-8.64-4.32-21.34-4.32-21.34-.45-13.24,13.35-31.07,13.35-31.07h0ZM168.43,8.95l-2.54,3.28c-.58.75-14.18,18.5-13.72,32.21v.29s.11.27.11.27c.05.12,4.63,12.47,4.21,20.63l-.32,6.09,3.51-4.99c.58-.82,14.09-20.5,9.33-53.68l-.59-4.11h0Z"/>
    </g>
    <g>
      <path class="cls-3" d="M112.2,213.34c-3.47-4.11-5.28-13.14-5.35-13.52l-.15-.76,5.83-1.94-.25,1.45c-.44,2.54.9,11.01,1.46,14.05l.59,3.24-2.12-2.51Z"/>
      <path class="cls-1" d="M115.74,218.74l-1.14-6.28c-.76-4.17-1.83-11.6-1.46-13.74l.26-1.52.17-.98.07-.39-2.79.92-3.71,1.24-.08.03-.18.06-.62.2-.24.08-.34.11.29,1.52c.08.4,1.92,9.6,5.52,13.89,0,0,.02.02.03.03l4.25,5.03-.04-.19ZM107.71,199.65l3.7-1.24c-.56,3.25,1.46,14.36,1.46,14.36-3.37-3.98-5.16-13.12-5.16-13.12Z"/>
    </g>
    <g>
      <g>
        <path class="cls-2" d="M110.85,196.74l2.79-.92-.07.39c-3.65,1.27-5.56,1.8-5.63,1.82l-.84.23-.18.05-.02-.24-.06-.83c-.04-.47-.74-10.78,3.8-17.38l-.19.6-.04.11-.05.11c-2.77,5.59-3.87,11.38-3.28,17.32l.08-.03,3.71-1.24Z"/>
        <path class="cls-2" d="M124.65,172.41c-3.76,1.93-8.1,3.65-10.98,4.7,2.3-1.23,6.45-2.98,10.98-4.7Z"/>
        <path class="cls-2" d="M224.49,172.28s-.67-1.12-4.49-3.93c-3.81-2.8-11.33-6.4-14.46-6.85-.32-.04-.62-.06-.89-.06-2.49,0-3.37,1.63-1.36,1.63,2.25,0,3.93.22,7.18,2.47,3.26,2.24,3.26,5.61,3.26,6.62,0,.96-3.57,6.1-4.68,6.1-.05,0-.11-.02-.14-.04-.9-.56-1.12-3.02-.68-3.47.45-.46,2.14-2.58-.11-5.62-1.64-2.22-3.23-2.94-4.49-2.94-.46,0-.87.1-1.23.25-1.34.56.34.33,2.7,1.91,2.36,1.57,1,5.83,1,5.83l-6.27,6.5c-.79-2.47.11-4.82,1.46-6.95,1.34-2.14-1.8-2.36-1.8-2.36-.2,0-.4,0-.62,0-7.96,0-17.56-8.2-17.56-8.2-47.34,26.81-73.59,33.99-73.59,33.99,0,0-.9-12.12,4.82-18.29,1.34-1.69,22.65-9.98,29.95-11.22,7.17-1.21,39.17-13.92,44.19-13.92.09,0,.17,0,.24,0,2.83.31,6.49.87,11.23,1.34-1.56-.2-2.94-.57-3.2-.65l-1.14-.32.24-.37c1.32.16,2.74.32,4.28.47.02,0,.04,0,.05,0,.25.02.51.04.77.07.04,0,.09,0,.13,0,1.06.1,2.17.19,3.34.27-.24.13-.47.25-.68.33-.55.22-1.26.3-2,.3-.25,0-.49,0-.74-.03,1.93.18,4.04.34,6.34.47.41.03.81.04,1.18.04,6.66,0,6.15-3.36,9.83-3.36.3,0,.62.03.99.07,4.64.62,7.67,6.08,5.6,6.08-.18,0-.4-.04-.67-.13-2.04-.7-3.55-1.33-4.89-1.33-.79,0-1.53.22-2.28.76-.61.44-1.27.6-2,.6-1.69,0-3.74-.83-6.41-.83-3.37,0-5.69,1.31-3.25,1.31.33,0,.73-.02,1.23-.07.62-.07,1.22-.1,1.82-.1,3.6,0,7.16,1.14,11.87,3.35,5.27,3.7,5.94,10.21,5.94,10.21Z"/>
      </g>
      <g>
        <path class="cls-1" d="M202.33,153.71c-2.47-.18-4.68-.4-6.69-.63-.36-.04-.72-.09-1.07-.12-1.33-.17-2.55-.33-3.69-.47-1.42-.18-2.65-.34-3.79-.47-.12,0-.26-.02-.42-.02-2.79,0-10.95,2.79-24.04,7.36-8.49,2.97-17.28,6.05-20.44,6.58-2.65.45-7.88,2.07-13.32,4-1.58.56-3.18,1.15-4.74,1.75-4.23,1.61-8.15,3.27-10.58,4.53,0,0-.02,0-.03,0-1.12.59-1.92,1.09-2.28,1.47-.13.14-.25.28-.38.42-.22.25-.42.52-.62.79-.18.25-.36.5-.53.76-3.37,5.16-3.82,12.24-3.82,15.66,0,1.13.05,1.86.06,1.99l.08,1.04.08,1.09.3-.08.33-.1.46-.12.98-.26c.06-.02,1.51-.43,4.28-1.36.3-.11.62-.21.95-.33l.17-.98.07-.39-2.79.92-3.71,1.24-.08.03c-.59-5.94.51-11.73,3.28-17.32l.05-.11.04-.11.19-.6c.38-.55.79-1.07,1.25-1.56.23-.28.84-.69,1.76-1.17,0,0,.02-.02.04-.02,2.87-1.05,7.21-2.77,10.98-4.7,6.68-2.54,14.16-5,17.68-5.6,3.24-.55,12.07-3.64,20.6-6.63,10.75-3.76,20.9-7.31,23.74-7.31.12,0,.23,0,.33.02,1.12.12,2.37.28,3.77.47,1.02.13,2.11.27,3.27.41l-.24.37,1.14.32c.26.08,1.64.45,3.2.65.04,0,.08,0,.12,0,.28.03.56.06.85.09h.08c.25.02.49.03.74.03.75,0,1.45-.08,2-.3.21-.08.44-.19.68-.33.38-.21.76-.48,1.17-.8-.49-.03-.98-.06-1.45-.1Z"/>
        <path class="cls-1" d="M222.99,173.21h0c-.16-.2-1.05-1.25-4.03-3.44-1.28-.94-3.03-1.99-4.89-2.97.93,1.5,1.41,3.3,1.41,5.37,0,.91-.76,2.4-2.27,4.45-2.2,3-3.3,3.41-4.17,3.41-.38,0-.76-.11-1.07-.31-1.2-.76-1.56-2.31-1.68-3.21l-5.22,5.4-.28.29-.07.08s-1.78,1.35-2.03.67l-.55-1.72c-.8-2.5-.33-5.14,1.42-8.07-.04,0-.09,0-.13-.02-.18,0-.38,0-.57,0-7.07,0-15.01-5.7-17.73-7.84-34.47,19.44-57.88,28.49-67.72,31.88l.17-.98.07-.39-2.79.92-3.71,1.24-.08.03c-.59-5.94.51-11.73,3.28-17.32l.05-.11.04-.11.19-.6c.38-.55.79-1.07,1.25-1.56.23-.28.84-.69,1.76-1.17,0,0,.02-.02.04-.02,2.87-1.05,7.21-2.77,10.98-4.7,6.68-2.54,14.16-5,17.68-5.6,3.24-.55,12.07-3.64,20.6-6.63,10.75-3.76,20.9-7.31,23.74-7.31.12,0,.23,0,.33.02,1.12.12,2.37.28,3.77.47,1.02.13,2.11.27,3.27.41l-.24.37,1.14.32c.26.08,1.64.45,3.2.65-4.75-.47-8.4-1.04-11.23-1.34-.07,0-.15,0-.24,0-5.02,0-37.02,12.71-44.19,13.92-7.29,1.24-28.6,9.53-29.95,11.22-5.72,6.17-4.82,18.29-4.82,18.29,0,0,26.25-7.18,73.59-33.99,0,0,9.6,8.2,17.56,8.2.21,0,.41,0,.62,0,0,0,3.15.22,1.8,2.36-1.35,2.13-2.25,4.48-1.46,6.95l6.27-6.5s1.35-4.26-1-5.83c-2.36-1.57-4.04-1.34-2.7-1.91.36-.15.77-.25,1.23-.25,1.26,0,2.85.71,4.49,2.94,2.25,3.03.56,5.16.11,5.62-.45.45-.22,2.91.68,3.47l.12.04c1.09.07,4.7-5.13,4.7-6.1s0-4.38-3.26-6.62c-3.25-2.25-4.93-2.47-7.18-2.47-2.01,0-1.12-1.63,1.36-1.63.27,0,.57.02.89.06,3.14.45,10.65,4.04,14.46,6.85,3.82,2.8,4.49,3.93,4.49,3.93,0,0-.67-6.51-5.94-10.21-4.71-2.21-8.27-3.35-11.87-3.35-.6,0-1.2.03-1.82.1-.5.05-.91.07-1.23.07-2.43,0-.11-1.31,3.25-1.31,2.66,0,4.72.83,6.41.83.74,0,1.4-.16,2-.6.76-.54,1.49-.76,2.28-.76,1.34,0,2.86.62,4.89,1.33.26.09.48.13.67.13,2.07,0-.96-5.46-5.6-6.08-.37-.04-.69-.07-.99-.07-3.68,0-3.17,3.36-9.83,3.36-.37,0-.76,0-1.18-.04-2.29-.12-4.4-.28-6.34-.47.25.02.49.03.74.03.75,0,1.45-.08,2-.3.21-.08.44-.19.68-.33.38-.21.76-.48,1.17-.8.6.04,1.21.08,1.84.11.38.02.75.03,1.09.03,3.23,0,4.32-.82,5.47-1.69,1.03-.78,2.2-1.67,4.36-1.67.39,0,.79.03,1.22.09,4.53.61,7.94,4.87,7.79,7.33-.09,1.33-1.08,2.25-2.42,2.25-.39,0-.79-.08-1.24-.23-.31-.11-.61-.21-.9-.32-1.44-.51-2.58-.91-3.43-.91-.44,0-.81.12-1.2.39.91.38,1.88.81,2.91,1.29l.14.06.12.09c5.86,4.12,6.66,11.17,6.69,11.47l.02.17c.21,1.92-2.41,2.68-3.26.95Z"/>
      </g>
    </g>
    <g>
      <path class="cls-2" d="M195.18,153.61s4.5,1.26,6.44.5c1.94-.76,3.62-4.16,3.7-5.47,0,0-8.65,2.65-10.14,4.96Z"/>
      <path class="cls-1" d="M204.46,146.79c-.89.27-8.04,3.66-9.89,6.16-.05.06-.1.12-.13.18l-.4.63-.24.37,1.14.32c.26.08,1.64.45,3.2.65.04,0,.08,0,.12,0,.28.03.56.06.85.09h.08c.25.02.49.03.74.03.75,0,1.45-.08,2-.3.21-.08.44-.19.68-.33.38-.21.76-.48,1.17-.8,2.06-1.59,4.26-4.24,4.34-5.46l1.3-2.65-4.97,1.09ZM205.26,149.05c-.67,1.35-2.43,3.79-3.96,4.24-.91.27-2.74.15-4.31-.17,1.62-1.08,4.55-3.33,8.31-4.25.02,0,.04-.02.05-.02-.03.06-.06.12-.09.19Z"/>
    </g>
    <g>
      <path class="cls-4" d="M77.88,157.45c-.2-.37-5.02-9.08-6.38-16.99l-.05-.28.12-.25c.5-1.03,12.39-25.25,23.99-30.48l3.86-1.74-2.84,3.13c-.18.2-17.81,19.92-17.05,46.16l.11,3.6-1.75-3.14Z"/>
      <path class="cls-1" d="M95.93,110.24s-18.06,19.86-17.28,46.78c0,0-4.94-8.86-6.28-16.72,0,0,12.12-24.9,23.56-30.06h0ZM102.9,105.17l-7.7,3.47c-11.89,5.36-23.91,29.86-24.42,30.9l-.25.51.1.56c1.38,8.06,6.27,16.9,6.48,17.27l3.5,6.29-.21-7.19c-.75-25.86,16.64-45.35,16.82-45.55l5.67-6.25h0Z"/>
    </g>
  </g>
</svg>